<?xml version="1.0" encoding="iso-8859-1"?><!DOCTYPE svg PUBLIC "-//W3C//DTD SVG 1.1//EN" "http://www.w3.org/Graphics/SVG/1.1/DTD/svg11.dtd"><svg viewBox="0 0 166.15 166.15" xmlns="http://www.w3.org/2000/svg" xmlns:xlink="http://www.w3.org/1999/xlink"><style>:root>svg{display:none}:root>svg:target{display:block}</style><svg viewBox="0 0 97.75 97.75" id="facebook-logo" xmlns="http://www.w3.org/2000/svg"><path d="M48.875 0C21.882 0 0 21.882 0 48.875S21.882 97.75 48.875 97.75 97.75 75.868 97.75 48.875 75.868 0 48.875 0zm18.646 24.89l-6.76.003c-5.301 0-6.326 2.519-6.326 6.215v8.15h12.641l-.006 12.765H54.436v32.758H41.251V52.023H30.229V39.258h11.022v-9.414c0-10.925 6.675-16.875 16.42-16.875l9.851.015V24.89h-.001z"/></svg><svg viewBox="0 0 166.152 166.152" id="game-control-for-pc" xmlns="http://www.w3.org/2000/svg"><path d="M165.64 114.103l-10.693-60.576c-2.852-16.158-17.441-23.897-32.424-17.197l-12.214 5.46c-14.989 6.701-39.489 6.701-54.472 0l-12.214-5.46c-14.983-6.7-29.572 1.039-32.424 17.197L.513 114.103c-2.852 16.158 6.492 22.752 20.771 14.673l.734-.412c14.279-8.085 39.381-14.708 55.79-14.708h10.526c16.409 0 41.517 6.617 55.796 14.708l.734.412c14.284 8.096 23.628 1.485 20.776-14.673zM53.325 89.084h-6.003v6.009c0 4.398-2.703 8.008-6.009 8.008-3.306 0-6.003-3.604-6.003-8.008v-6.009h-6.003c-4.404 0-8.008-2.709-8.008-6.009s3.604-6.009 8.008-6.009h6.003v-6.009c0-4.398 2.703-8.008 6.003-8.008 3.3 0 6.009 3.604 6.009 8.008v6.009h6.003c4.404 0 8.008 2.709 8.008 6.009s-3.616 6.009-8.008 6.009zm57.545.03c-3.341 0-6.044-2.703-6.044-6.044s2.703-6.056 6.044-6.056 6.044 2.715 6.044 6.056-2.709 6.044-6.044 6.044zm13.974 13.974a6.04 6.04 0 01-6.044-6.044A6.04 6.04 0 01124.844 91a6.044 6.044 0 110 12.088zm0-27.943a6.04 6.04 0 01-6.044-6.044 6.041 6.041 0 016.044-6.05 6.043 6.043 0 016.05 6.05 6.044 6.044 0 01-6.05 6.044zm13.969 13.969c-3.341 0-6.044-2.703-6.044-6.044s2.703-6.056 6.044-6.056c3.347 0 6.05 2.715 6.05 6.056s-2.709 6.044-6.05 6.044z" fill="#010002"/></svg><svg viewBox="0 0 29.939 29.939" id="linkedin" xmlns="http://www.w3.org/2000/svg"><path d="M27.56.683H2.383A2.38 2.38 0 000 3.063v23.813a2.381 2.381 0 002.383 2.379H27.56a2.381 2.381 0 002.379-2.379V3.063A2.38 2.38 0 0027.56.683zM8.459 26.891H4.114v-14.21h4.345v14.21zm0-16.734l-4.345-1V6.446h4.345v3.711zm17.367 16.734h-4.345v-8.457c0-1.235-.193-2.158-.579-2.766-.387-.608-1.033-.912-2.018-.912-1.12 0-1.932.333-2.433.999-.503.666-.599 1.762-.599 3.287v7.849h-4.306V11.995h3.755v1.17l.086.282c1.17-.92 1.391-.945 2.221-1.341.831-.396 1.875-.671 2.743-.671 1.101 0 2.003.228 2.708.526.705.3 1.26.715 1.665 1.246s.69 1.177.854 1.94.246 1.607.246 2.534v9.21h.002z"/></svg><svg viewBox="0 0 34 34" id="twitter-circular-logo" xmlns="http://www.w3.org/2000/svg"><path d="M17 0C7.611 0 0 7.61 0 17c0 9.391 7.611 17 17 17s17-7.609 17-17c0-9.39-7.611-17-17-17zm8.902 13.957c.008.171.012.343.012.517 0 5.286-4.023 11.383-11.383 11.383-2.26 0-4.362-.662-6.133-1.797.314.037.632.055.955.055a8.028 8.028 0 004.968-1.711 4.004 4.004 0 01-3.736-2.777 4.045 4.045 0 001.805-.071 4.006 4.006 0 01-3.208-3.925v-.049c.541.3 1.157.479 1.813.5a3.998 3.998 0 01-1.779-3.331c0-.731.197-1.42.542-2.011a11.35 11.35 0 008.246 4.18 4 4 0 016.816-3.648 8.095 8.095 0 002.541-.969 4.017 4.017 0 01-1.758 2.211 7.974 7.974 0 002.297-.629 8.15 8.15 0 01-1.998 2.072z"/></svg></svg>